M48
; DRILL file {KiCad 8.0.5} date 2025-03-27T01:37:45-0500
; FORMAT={-:-/ absolute / inch / decimal}
; #@! TF.CreationDate,2025-03-27T01:37:45-05:00
; #@! TF.GenerationSoftware,Kicad,Pcbnew,8.0.5
; #@! TF.FileFunction,Plated,1,2,PTH
FMAT,2
INCH
; #@! TA.AperFunction,Plated,PTH,ViaDrill
T1C0.0118
; #@! TA.AperFunction,Plated,PTH,ComponentDrill
T2C0.0394
%
G90
G05
T1
X5.3061Y-3.7638
X5.3514Y-3.8957
X5.4085Y-3.8484
X5.515Y-3.9902
X5.5157Y-3.8524
X5.5394Y-4.5965
X5.6073Y-4.4783
X5.8406Y-4.0965
X5.9317Y-3.527
X5.9803Y-4.5344
X5.9803Y-4.7608
X6.0266Y-3.6841
X6.048Y-3.9294
T2
X4.5141Y-4.4502
X4.5141Y-4.5502
X4.515Y-3.485
X4.515Y-3.585
X4.515Y-3.805
X4.515Y-3.905
X4.5156Y-4.125
X4.5156Y-4.225
X4.7798Y-4.86
X4.8048Y-3.2231
X4.8798Y-4.86
X4.9048Y-3.2231
X5.1302Y-4.8609
X5.1352Y-3.2241
X5.2302Y-4.8609
X5.2352Y-3.2241
X5.49Y-4.86
X5.5498Y-3.225
X5.59Y-4.86
X5.6287Y-3.5338
X5.6287Y-3.6338
X5.6287Y-3.7338
X5.6287Y-3.8338
X5.6287Y-3.9338
X5.6498Y-3.225
X5.69Y-4.86
X5.7287Y-3.5338
X5.7287Y-3.6338
X5.7287Y-3.7338
X5.7287Y-3.8338
X5.7287Y-3.9338
X6.1152Y-3.313
X6.1152Y-3.413
X6.1425Y-4.0965
X6.1425Y-4.1965
X6.1425Y-4.2965
X6.1425Y-4.3965
X6.1425Y-4.4965
X6.1425Y-4.5965
M30
