%TF.GenerationSoftware,KiCad,Pcbnew,8.0.5*%
%TF.CreationDate,2025-03-27T01:38:25-05:00*%
%TF.ProjectId,ADC_Breakout,4144435f-4272-4656-916b-6f75742e6b69,IR*%
%TF.SameCoordinates,Original*%
%TF.FileFunction,Legend,Bot*%
%TF.FilePolarity,Positive*%
%FSLAX46Y46*%
G04 Gerber Fmt 4.6, Leading zero omitted, Abs format (unit mm)*
G04 Created by KiCad (PCBNEW 8.0.5) date 2025-03-27 01:38:25*
%MOMM*%
%LPD*%
G01*
G04 APERTURE LIST*
%ADD10C,0.153000*%
%ADD11C,0.254000*%
%ADD12C,0.120000*%
%ADD13C,0.010000*%
G04 APERTURE END LIST*
D10*
X134537561Y-105924060D02*
X134061371Y-105924060D01*
X134632799Y-106209775D02*
X134299466Y-105209775D01*
X134299466Y-105209775D02*
X133966133Y-106209775D01*
X133632799Y-106209775D02*
X133632799Y-105209775D01*
X133632799Y-105209775D02*
X133394704Y-105209775D01*
X133394704Y-105209775D02*
X133251847Y-105257394D01*
X133251847Y-105257394D02*
X133156609Y-105352632D01*
X133156609Y-105352632D02*
X133108990Y-105447870D01*
X133108990Y-105447870D02*
X133061371Y-105638346D01*
X133061371Y-105638346D02*
X133061371Y-105781203D01*
X133061371Y-105781203D02*
X133108990Y-105971679D01*
X133108990Y-105971679D02*
X133156609Y-106066917D01*
X133156609Y-106066917D02*
X133251847Y-106162156D01*
X133251847Y-106162156D02*
X133394704Y-106209775D01*
X133394704Y-106209775D02*
X133632799Y-106209775D01*
X132680418Y-106162156D02*
X132537561Y-106209775D01*
X132537561Y-106209775D02*
X132299466Y-106209775D01*
X132299466Y-106209775D02*
X132204228Y-106162156D01*
X132204228Y-106162156D02*
X132156609Y-106114536D01*
X132156609Y-106114536D02*
X132108990Y-106019298D01*
X132108990Y-106019298D02*
X132108990Y-105924060D01*
X132108990Y-105924060D02*
X132156609Y-105828822D01*
X132156609Y-105828822D02*
X132204228Y-105781203D01*
X132204228Y-105781203D02*
X132299466Y-105733584D01*
X132299466Y-105733584D02*
X132489942Y-105685965D01*
X132489942Y-105685965D02*
X132585180Y-105638346D01*
X132585180Y-105638346D02*
X132632799Y-105590727D01*
X132632799Y-105590727D02*
X132680418Y-105495489D01*
X132680418Y-105495489D02*
X132680418Y-105400251D01*
X132680418Y-105400251D02*
X132632799Y-105305013D01*
X132632799Y-105305013D02*
X132585180Y-105257394D01*
X132585180Y-105257394D02*
X132489942Y-105209775D01*
X132489942Y-105209775D02*
X132251847Y-105209775D01*
X132251847Y-105209775D02*
X132108990Y-105257394D01*
X131156609Y-106209775D02*
X131728037Y-106209775D01*
X131442323Y-106209775D02*
X131442323Y-105209775D01*
X131442323Y-105209775D02*
X131537561Y-105352632D01*
X131537561Y-105352632D02*
X131632799Y-105447870D01*
X131632799Y-105447870D02*
X131728037Y-105495489D01*
X130823275Y-105209775D02*
X130204228Y-105209775D01*
X130204228Y-105209775D02*
X130537561Y-105590727D01*
X130537561Y-105590727D02*
X130394704Y-105590727D01*
X130394704Y-105590727D02*
X130299466Y-105638346D01*
X130299466Y-105638346D02*
X130251847Y-105685965D01*
X130251847Y-105685965D02*
X130204228Y-105781203D01*
X130204228Y-105781203D02*
X130204228Y-106019298D01*
X130204228Y-106019298D02*
X130251847Y-106114536D01*
X130251847Y-106114536D02*
X130299466Y-106162156D01*
X130299466Y-106162156D02*
X130394704Y-106209775D01*
X130394704Y-106209775D02*
X130680418Y-106209775D01*
X130680418Y-106209775D02*
X130775656Y-106162156D01*
X130775656Y-106162156D02*
X130823275Y-106114536D01*
X129251847Y-106209775D02*
X129823275Y-106209775D01*
X129537561Y-106209775D02*
X129537561Y-105209775D01*
X129537561Y-105209775D02*
X129632799Y-105352632D01*
X129632799Y-105352632D02*
X129728037Y-105447870D01*
X129728037Y-105447870D02*
X129823275Y-105495489D01*
X128823275Y-106209775D02*
X128823275Y-105209775D01*
X128823275Y-105209775D02*
X128489942Y-105924060D01*
X128489942Y-105924060D02*
X128156609Y-105209775D01*
X128156609Y-105209775D02*
X128156609Y-106209775D01*
X127489942Y-105209775D02*
X127394704Y-105209775D01*
X127394704Y-105209775D02*
X127299466Y-105257394D01*
X127299466Y-105257394D02*
X127251847Y-105305013D01*
X127251847Y-105305013D02*
X127204228Y-105400251D01*
X127204228Y-105400251D02*
X127156609Y-105590727D01*
X127156609Y-105590727D02*
X127156609Y-105828822D01*
X127156609Y-105828822D02*
X127204228Y-106019298D01*
X127204228Y-106019298D02*
X127251847Y-106114536D01*
X127251847Y-106114536D02*
X127299466Y-106162156D01*
X127299466Y-106162156D02*
X127394704Y-106209775D01*
X127394704Y-106209775D02*
X127489942Y-106209775D01*
X127489942Y-106209775D02*
X127585180Y-106162156D01*
X127585180Y-106162156D02*
X127632799Y-106114536D01*
X127632799Y-106114536D02*
X127680418Y-106019298D01*
X127680418Y-106019298D02*
X127728037Y-105828822D01*
X127728037Y-105828822D02*
X127728037Y-105590727D01*
X127728037Y-105590727D02*
X127680418Y-105400251D01*
X127680418Y-105400251D02*
X127632799Y-105305013D01*
X127632799Y-105305013D02*
X127585180Y-105257394D01*
X127585180Y-105257394D02*
X127489942Y-105209775D01*
X126585180Y-105638346D02*
X126680418Y-105590727D01*
X126680418Y-105590727D02*
X126728037Y-105543108D01*
X126728037Y-105543108D02*
X126775656Y-105447870D01*
X126775656Y-105447870D02*
X126775656Y-105400251D01*
X126775656Y-105400251D02*
X126728037Y-105305013D01*
X126728037Y-105305013D02*
X126680418Y-105257394D01*
X126680418Y-105257394D02*
X126585180Y-105209775D01*
X126585180Y-105209775D02*
X126394704Y-105209775D01*
X126394704Y-105209775D02*
X126299466Y-105257394D01*
X126299466Y-105257394D02*
X126251847Y-105305013D01*
X126251847Y-105305013D02*
X126204228Y-105400251D01*
X126204228Y-105400251D02*
X126204228Y-105447870D01*
X126204228Y-105447870D02*
X126251847Y-105543108D01*
X126251847Y-105543108D02*
X126299466Y-105590727D01*
X126299466Y-105590727D02*
X126394704Y-105638346D01*
X126394704Y-105638346D02*
X126585180Y-105638346D01*
X126585180Y-105638346D02*
X126680418Y-105685965D01*
X126680418Y-105685965D02*
X126728037Y-105733584D01*
X126728037Y-105733584D02*
X126775656Y-105828822D01*
X126775656Y-105828822D02*
X126775656Y-106019298D01*
X126775656Y-106019298D02*
X126728037Y-106114536D01*
X126728037Y-106114536D02*
X126680418Y-106162156D01*
X126680418Y-106162156D02*
X126585180Y-106209775D01*
X126585180Y-106209775D02*
X126394704Y-106209775D01*
X126394704Y-106209775D02*
X126299466Y-106162156D01*
X126299466Y-106162156D02*
X126251847Y-106114536D01*
X126251847Y-106114536D02*
X126204228Y-106019298D01*
X126204228Y-106019298D02*
X126204228Y-105828822D01*
X126204228Y-105828822D02*
X126251847Y-105733584D01*
X126251847Y-105733584D02*
X126299466Y-105685965D01*
X126299466Y-105685965D02*
X126394704Y-105638346D01*
X125775656Y-105828822D02*
X125013752Y-105828822D01*
X123870895Y-106305013D02*
X123966133Y-106257394D01*
X123966133Y-106257394D02*
X124061371Y-106162156D01*
X124061371Y-106162156D02*
X124204228Y-106019298D01*
X124204228Y-106019298D02*
X124299466Y-105971679D01*
X124299466Y-105971679D02*
X124394704Y-105971679D01*
X124347085Y-106209775D02*
X124442323Y-106162156D01*
X124442323Y-106162156D02*
X124537561Y-106066917D01*
X124537561Y-106066917D02*
X124585180Y-105876441D01*
X124585180Y-105876441D02*
X124585180Y-105543108D01*
X124585180Y-105543108D02*
X124537561Y-105352632D01*
X124537561Y-105352632D02*
X124442323Y-105257394D01*
X124442323Y-105257394D02*
X124347085Y-105209775D01*
X124347085Y-105209775D02*
X124156609Y-105209775D01*
X124156609Y-105209775D02*
X124061371Y-105257394D01*
X124061371Y-105257394D02*
X123966133Y-105352632D01*
X123966133Y-105352632D02*
X123918514Y-105543108D01*
X123918514Y-105543108D02*
X123918514Y-105876441D01*
X123918514Y-105876441D02*
X123966133Y-106066917D01*
X123966133Y-106066917D02*
X124061371Y-106162156D01*
X124061371Y-106162156D02*
X124156609Y-106209775D01*
X124156609Y-106209775D02*
X124347085Y-106209775D01*
X122966133Y-106209775D02*
X123537561Y-106209775D01*
X123251847Y-106209775D02*
X123251847Y-105209775D01*
X123251847Y-105209775D02*
X123347085Y-105352632D01*
X123347085Y-105352632D02*
X123442323Y-105447870D01*
X123442323Y-105447870D02*
X123537561Y-105495489D01*
X140347088Y-107534004D02*
X139870898Y-107534004D01*
X140442326Y-107819719D02*
X140108993Y-106819719D01*
X140108993Y-106819719D02*
X139775660Y-107819719D01*
X139442326Y-107819719D02*
X139442326Y-106819719D01*
X139442326Y-106819719D02*
X139204231Y-106819719D01*
X139204231Y-106819719D02*
X139061374Y-106867338D01*
X139061374Y-106867338D02*
X138966136Y-106962576D01*
X138966136Y-106962576D02*
X138918517Y-107057814D01*
X138918517Y-107057814D02*
X138870898Y-107248290D01*
X138870898Y-107248290D02*
X138870898Y-107391147D01*
X138870898Y-107391147D02*
X138918517Y-107581623D01*
X138918517Y-107581623D02*
X138966136Y-107676861D01*
X138966136Y-107676861D02*
X139061374Y-107772100D01*
X139061374Y-107772100D02*
X139204231Y-107819719D01*
X139204231Y-107819719D02*
X139442326Y-107819719D01*
X137870898Y-107724480D02*
X137918517Y-107772100D01*
X137918517Y-107772100D02*
X138061374Y-107819719D01*
X138061374Y-107819719D02*
X138156612Y-107819719D01*
X138156612Y-107819719D02*
X138299469Y-107772100D01*
X138299469Y-107772100D02*
X138394707Y-107676861D01*
X138394707Y-107676861D02*
X138442326Y-107581623D01*
X138442326Y-107581623D02*
X138489945Y-107391147D01*
X138489945Y-107391147D02*
X138489945Y-107248290D01*
X138489945Y-107248290D02*
X138442326Y-107057814D01*
X138442326Y-107057814D02*
X138394707Y-106962576D01*
X138394707Y-106962576D02*
X138299469Y-106867338D01*
X138299469Y-106867338D02*
X138156612Y-106819719D01*
X138156612Y-106819719D02*
X138061374Y-106819719D01*
X138061374Y-106819719D02*
X137918517Y-106867338D01*
X137918517Y-106867338D02*
X137870898Y-106914957D01*
X136347088Y-107295909D02*
X136204231Y-107343528D01*
X136204231Y-107343528D02*
X136156612Y-107391147D01*
X136156612Y-107391147D02*
X136108993Y-107486385D01*
X136108993Y-107486385D02*
X136108993Y-107629242D01*
X136108993Y-107629242D02*
X136156612Y-107724480D01*
X136156612Y-107724480D02*
X136204231Y-107772100D01*
X136204231Y-107772100D02*
X136299469Y-107819719D01*
X136299469Y-107819719D02*
X136680421Y-107819719D01*
X136680421Y-107819719D02*
X136680421Y-106819719D01*
X136680421Y-106819719D02*
X136347088Y-106819719D01*
X136347088Y-106819719D02*
X136251850Y-106867338D01*
X136251850Y-106867338D02*
X136204231Y-106914957D01*
X136204231Y-106914957D02*
X136156612Y-107010195D01*
X136156612Y-107010195D02*
X136156612Y-107105433D01*
X136156612Y-107105433D02*
X136204231Y-107200671D01*
X136204231Y-107200671D02*
X136251850Y-107248290D01*
X136251850Y-107248290D02*
X136347088Y-107295909D01*
X136347088Y-107295909D02*
X136680421Y-107295909D01*
X135680421Y-107819719D02*
X135680421Y-107153052D01*
X135680421Y-107343528D02*
X135632802Y-107248290D01*
X135632802Y-107248290D02*
X135585183Y-107200671D01*
X135585183Y-107200671D02*
X135489945Y-107153052D01*
X135489945Y-107153052D02*
X135394707Y-107153052D01*
X134680421Y-107772100D02*
X134775659Y-107819719D01*
X134775659Y-107819719D02*
X134966135Y-107819719D01*
X134966135Y-107819719D02*
X135061373Y-107772100D01*
X135061373Y-107772100D02*
X135108992Y-107676861D01*
X135108992Y-107676861D02*
X135108992Y-107295909D01*
X135108992Y-107295909D02*
X135061373Y-107200671D01*
X135061373Y-107200671D02*
X134966135Y-107153052D01*
X134966135Y-107153052D02*
X134775659Y-107153052D01*
X134775659Y-107153052D02*
X134680421Y-107200671D01*
X134680421Y-107200671D02*
X134632802Y-107295909D01*
X134632802Y-107295909D02*
X134632802Y-107391147D01*
X134632802Y-107391147D02*
X135108992Y-107486385D01*
X133775659Y-107819719D02*
X133775659Y-107295909D01*
X133775659Y-107295909D02*
X133823278Y-107200671D01*
X133823278Y-107200671D02*
X133918516Y-107153052D01*
X133918516Y-107153052D02*
X134108992Y-107153052D01*
X134108992Y-107153052D02*
X134204230Y-107200671D01*
X133775659Y-107772100D02*
X133870897Y-107819719D01*
X133870897Y-107819719D02*
X134108992Y-107819719D01*
X134108992Y-107819719D02*
X134204230Y-107772100D01*
X134204230Y-107772100D02*
X134251849Y-107676861D01*
X134251849Y-107676861D02*
X134251849Y-107581623D01*
X134251849Y-107581623D02*
X134204230Y-107486385D01*
X134204230Y-107486385D02*
X134108992Y-107438766D01*
X134108992Y-107438766D02*
X133870897Y-107438766D01*
X133870897Y-107438766D02*
X133775659Y-107391147D01*
X133299468Y-107819719D02*
X133299468Y-106819719D01*
X133204230Y-107438766D02*
X132918516Y-107819719D01*
X132918516Y-107153052D02*
X133299468Y-107534004D01*
X132347087Y-107819719D02*
X132442325Y-107772100D01*
X132442325Y-107772100D02*
X132489944Y-107724480D01*
X132489944Y-107724480D02*
X132537563Y-107629242D01*
X132537563Y-107629242D02*
X132537563Y-107343528D01*
X132537563Y-107343528D02*
X132489944Y-107248290D01*
X132489944Y-107248290D02*
X132442325Y-107200671D01*
X132442325Y-107200671D02*
X132347087Y-107153052D01*
X132347087Y-107153052D02*
X132204230Y-107153052D01*
X132204230Y-107153052D02*
X132108992Y-107200671D01*
X132108992Y-107200671D02*
X132061373Y-107248290D01*
X132061373Y-107248290D02*
X132013754Y-107343528D01*
X132013754Y-107343528D02*
X132013754Y-107629242D01*
X132013754Y-107629242D02*
X132061373Y-107724480D01*
X132061373Y-107724480D02*
X132108992Y-107772100D01*
X132108992Y-107772100D02*
X132204230Y-107819719D01*
X132204230Y-107819719D02*
X132347087Y-107819719D01*
X131156611Y-107153052D02*
X131156611Y-107819719D01*
X131585182Y-107153052D02*
X131585182Y-107676861D01*
X131585182Y-107676861D02*
X131537563Y-107772100D01*
X131537563Y-107772100D02*
X131442325Y-107819719D01*
X131442325Y-107819719D02*
X131299468Y-107819719D01*
X131299468Y-107819719D02*
X131204230Y-107772100D01*
X131204230Y-107772100D02*
X131156611Y-107724480D01*
X130823277Y-107153052D02*
X130442325Y-107153052D01*
X130680420Y-106819719D02*
X130680420Y-107676861D01*
X130680420Y-107676861D02*
X130632801Y-107772100D01*
X130632801Y-107772100D02*
X130537563Y-107819719D01*
X130537563Y-107819719D02*
X130442325Y-107819719D01*
X129013753Y-107295909D02*
X128870896Y-107343528D01*
X128870896Y-107343528D02*
X128823277Y-107391147D01*
X128823277Y-107391147D02*
X128775658Y-107486385D01*
X128775658Y-107486385D02*
X128775658Y-107629242D01*
X128775658Y-107629242D02*
X128823277Y-107724480D01*
X128823277Y-107724480D02*
X128870896Y-107772100D01*
X128870896Y-107772100D02*
X128966134Y-107819719D01*
X128966134Y-107819719D02*
X129347086Y-107819719D01*
X129347086Y-107819719D02*
X129347086Y-106819719D01*
X129347086Y-106819719D02*
X129013753Y-106819719D01*
X129013753Y-106819719D02*
X128918515Y-106867338D01*
X128918515Y-106867338D02*
X128870896Y-106914957D01*
X128870896Y-106914957D02*
X128823277Y-107010195D01*
X128823277Y-107010195D02*
X128823277Y-107105433D01*
X128823277Y-107105433D02*
X128870896Y-107200671D01*
X128870896Y-107200671D02*
X128918515Y-107248290D01*
X128918515Y-107248290D02*
X129013753Y-107295909D01*
X129013753Y-107295909D02*
X129347086Y-107295909D01*
X128204229Y-107819719D02*
X128299467Y-107772100D01*
X128299467Y-107772100D02*
X128347086Y-107724480D01*
X128347086Y-107724480D02*
X128394705Y-107629242D01*
X128394705Y-107629242D02*
X128394705Y-107343528D01*
X128394705Y-107343528D02*
X128347086Y-107248290D01*
X128347086Y-107248290D02*
X128299467Y-107200671D01*
X128299467Y-107200671D02*
X128204229Y-107153052D01*
X128204229Y-107153052D02*
X128061372Y-107153052D01*
X128061372Y-107153052D02*
X127966134Y-107200671D01*
X127966134Y-107200671D02*
X127918515Y-107248290D01*
X127918515Y-107248290D02*
X127870896Y-107343528D01*
X127870896Y-107343528D02*
X127870896Y-107629242D01*
X127870896Y-107629242D02*
X127918515Y-107724480D01*
X127918515Y-107724480D02*
X127966134Y-107772100D01*
X127966134Y-107772100D02*
X128061372Y-107819719D01*
X128061372Y-107819719D02*
X128204229Y-107819719D01*
X127013753Y-107819719D02*
X127013753Y-107295909D01*
X127013753Y-107295909D02*
X127061372Y-107200671D01*
X127061372Y-107200671D02*
X127156610Y-107153052D01*
X127156610Y-107153052D02*
X127347086Y-107153052D01*
X127347086Y-107153052D02*
X127442324Y-107200671D01*
X127013753Y-107772100D02*
X127108991Y-107819719D01*
X127108991Y-107819719D02*
X127347086Y-107819719D01*
X127347086Y-107819719D02*
X127442324Y-107772100D01*
X127442324Y-107772100D02*
X127489943Y-107676861D01*
X127489943Y-107676861D02*
X127489943Y-107581623D01*
X127489943Y-107581623D02*
X127442324Y-107486385D01*
X127442324Y-107486385D02*
X127347086Y-107438766D01*
X127347086Y-107438766D02*
X127108991Y-107438766D01*
X127108991Y-107438766D02*
X127013753Y-107391147D01*
X126537562Y-107819719D02*
X126537562Y-107153052D01*
X126537562Y-107343528D02*
X126489943Y-107248290D01*
X126489943Y-107248290D02*
X126442324Y-107200671D01*
X126442324Y-107200671D02*
X126347086Y-107153052D01*
X126347086Y-107153052D02*
X126251848Y-107153052D01*
X125489943Y-107819719D02*
X125489943Y-106819719D01*
X125489943Y-107772100D02*
X125585181Y-107819719D01*
X125585181Y-107819719D02*
X125775657Y-107819719D01*
X125775657Y-107819719D02*
X125870895Y-107772100D01*
X125870895Y-107772100D02*
X125918514Y-107724480D01*
X125918514Y-107724480D02*
X125966133Y-107629242D01*
X125966133Y-107629242D02*
X125966133Y-107343528D01*
X125966133Y-107343528D02*
X125918514Y-107248290D01*
X125918514Y-107248290D02*
X125870895Y-107200671D01*
X125870895Y-107200671D02*
X125775657Y-107153052D01*
X125775657Y-107153052D02*
X125585181Y-107153052D01*
X125585181Y-107153052D02*
X125489943Y-107200671D01*
X124347085Y-107153052D02*
X124108990Y-107819719D01*
X124108990Y-107819719D02*
X123870895Y-107153052D01*
X122966133Y-107819719D02*
X123537561Y-107819719D01*
X123251847Y-107819719D02*
X123251847Y-106819719D01*
X123251847Y-106819719D02*
X123347085Y-106962576D01*
X123347085Y-106962576D02*
X123442323Y-107057814D01*
X123442323Y-107057814D02*
X123537561Y-107105433D01*
X132728038Y-110991988D02*
X132585181Y-111039607D01*
X132585181Y-111039607D02*
X132347086Y-111039607D01*
X132347086Y-111039607D02*
X132251848Y-110991988D01*
X132251848Y-110991988D02*
X132204229Y-110944368D01*
X132204229Y-110944368D02*
X132156610Y-110849130D01*
X132156610Y-110849130D02*
X132156610Y-110753892D01*
X132156610Y-110753892D02*
X132204229Y-110658654D01*
X132204229Y-110658654D02*
X132251848Y-110611035D01*
X132251848Y-110611035D02*
X132347086Y-110563416D01*
X132347086Y-110563416D02*
X132537562Y-110515797D01*
X132537562Y-110515797D02*
X132632800Y-110468178D01*
X132632800Y-110468178D02*
X132680419Y-110420559D01*
X132680419Y-110420559D02*
X132728038Y-110325321D01*
X132728038Y-110325321D02*
X132728038Y-110230083D01*
X132728038Y-110230083D02*
X132680419Y-110134845D01*
X132680419Y-110134845D02*
X132632800Y-110087226D01*
X132632800Y-110087226D02*
X132537562Y-110039607D01*
X132537562Y-110039607D02*
X132299467Y-110039607D01*
X132299467Y-110039607D02*
X132156610Y-110087226D01*
X131728038Y-111039607D02*
X131728038Y-110039607D01*
X131299467Y-111039607D02*
X131299467Y-110515797D01*
X131299467Y-110515797D02*
X131347086Y-110420559D01*
X131347086Y-110420559D02*
X131442324Y-110372940D01*
X131442324Y-110372940D02*
X131585181Y-110372940D01*
X131585181Y-110372940D02*
X131680419Y-110420559D01*
X131680419Y-110420559D02*
X131728038Y-110468178D01*
X130394705Y-111039607D02*
X130394705Y-110515797D01*
X130394705Y-110515797D02*
X130442324Y-110420559D01*
X130442324Y-110420559D02*
X130537562Y-110372940D01*
X130537562Y-110372940D02*
X130728038Y-110372940D01*
X130728038Y-110372940D02*
X130823276Y-110420559D01*
X130394705Y-110991988D02*
X130489943Y-111039607D01*
X130489943Y-111039607D02*
X130728038Y-111039607D01*
X130728038Y-111039607D02*
X130823276Y-110991988D01*
X130823276Y-110991988D02*
X130870895Y-110896749D01*
X130870895Y-110896749D02*
X130870895Y-110801511D01*
X130870895Y-110801511D02*
X130823276Y-110706273D01*
X130823276Y-110706273D02*
X130728038Y-110658654D01*
X130728038Y-110658654D02*
X130489943Y-110658654D01*
X130489943Y-110658654D02*
X130394705Y-110611035D01*
X129489943Y-110372940D02*
X129489943Y-111039607D01*
X129918514Y-110372940D02*
X129918514Y-110896749D01*
X129918514Y-110896749D02*
X129870895Y-110991988D01*
X129870895Y-110991988D02*
X129775657Y-111039607D01*
X129775657Y-111039607D02*
X129632800Y-111039607D01*
X129632800Y-111039607D02*
X129537562Y-110991988D01*
X129537562Y-110991988D02*
X129489943Y-110944368D01*
X129013752Y-110372940D02*
X129013752Y-111039607D01*
X129013752Y-110468178D02*
X128966133Y-110420559D01*
X128966133Y-110420559D02*
X128870895Y-110372940D01*
X128870895Y-110372940D02*
X128728038Y-110372940D01*
X128728038Y-110372940D02*
X128632800Y-110420559D01*
X128632800Y-110420559D02*
X128585181Y-110515797D01*
X128585181Y-110515797D02*
X128585181Y-111039607D01*
X127347085Y-111039607D02*
X127347085Y-110039607D01*
X126775657Y-111039607D02*
X127204228Y-110468178D01*
X126775657Y-110039607D02*
X127347085Y-110611035D01*
X125918514Y-110372940D02*
X125918514Y-111039607D01*
X126347085Y-110372940D02*
X126347085Y-110896749D01*
X126347085Y-110896749D02*
X126299466Y-110991988D01*
X126299466Y-110991988D02*
X126204228Y-111039607D01*
X126204228Y-111039607D02*
X126061371Y-111039607D01*
X126061371Y-111039607D02*
X125966133Y-110991988D01*
X125966133Y-110991988D02*
X125918514Y-110944368D01*
X125442323Y-111039607D02*
X125442323Y-110372940D01*
X125442323Y-110563416D02*
X125394704Y-110468178D01*
X125394704Y-110468178D02*
X125347085Y-110420559D01*
X125347085Y-110420559D02*
X125251847Y-110372940D01*
X125251847Y-110372940D02*
X125156609Y-110372940D01*
X124823275Y-111039607D02*
X124823275Y-110372940D01*
X124823275Y-110039607D02*
X124870894Y-110087226D01*
X124870894Y-110087226D02*
X124823275Y-110134845D01*
X124823275Y-110134845D02*
X124775656Y-110087226D01*
X124775656Y-110087226D02*
X124823275Y-110039607D01*
X124823275Y-110039607D02*
X124823275Y-110134845D01*
X123918514Y-111039607D02*
X123918514Y-110515797D01*
X123918514Y-110515797D02*
X123966133Y-110420559D01*
X123966133Y-110420559D02*
X124061371Y-110372940D01*
X124061371Y-110372940D02*
X124251847Y-110372940D01*
X124251847Y-110372940D02*
X124347085Y-110420559D01*
X123918514Y-110991988D02*
X124013752Y-111039607D01*
X124013752Y-111039607D02*
X124251847Y-111039607D01*
X124251847Y-111039607D02*
X124347085Y-110991988D01*
X124347085Y-110991988D02*
X124394704Y-110896749D01*
X124394704Y-110896749D02*
X124394704Y-110801511D01*
X124394704Y-110801511D02*
X124347085Y-110706273D01*
X124347085Y-110706273D02*
X124251847Y-110658654D01*
X124251847Y-110658654D02*
X124013752Y-110658654D01*
X124013752Y-110658654D02*
X123918514Y-110611035D01*
X123442323Y-110372940D02*
X123442323Y-111039607D01*
X123442323Y-110468178D02*
X123394704Y-110420559D01*
X123394704Y-110420559D02*
X123299466Y-110372940D01*
X123299466Y-110372940D02*
X123156609Y-110372940D01*
X123156609Y-110372940D02*
X123061371Y-110420559D01*
X123061371Y-110420559D02*
X123013752Y-110515797D01*
X123013752Y-110515797D02*
X123013752Y-111039607D01*
X131537562Y-112649551D02*
X131537562Y-111649551D01*
X131537562Y-111649551D02*
X131204229Y-112363836D01*
X131204229Y-112363836D02*
X130870896Y-111649551D01*
X130870896Y-111649551D02*
X130870896Y-112649551D01*
X129966134Y-112649551D02*
X129966134Y-112125741D01*
X129966134Y-112125741D02*
X130013753Y-112030503D01*
X130013753Y-112030503D02*
X130108991Y-111982884D01*
X130108991Y-111982884D02*
X130299467Y-111982884D01*
X130299467Y-111982884D02*
X130394705Y-112030503D01*
X129966134Y-112601932D02*
X130061372Y-112649551D01*
X130061372Y-112649551D02*
X130299467Y-112649551D01*
X130299467Y-112649551D02*
X130394705Y-112601932D01*
X130394705Y-112601932D02*
X130442324Y-112506693D01*
X130442324Y-112506693D02*
X130442324Y-112411455D01*
X130442324Y-112411455D02*
X130394705Y-112316217D01*
X130394705Y-112316217D02*
X130299467Y-112268598D01*
X130299467Y-112268598D02*
X130061372Y-112268598D01*
X130061372Y-112268598D02*
X129966134Y-112220979D01*
X129489943Y-112649551D02*
X129489943Y-111982884D01*
X129489943Y-112173360D02*
X129442324Y-112078122D01*
X129442324Y-112078122D02*
X129394705Y-112030503D01*
X129394705Y-112030503D02*
X129299467Y-111982884D01*
X129299467Y-111982884D02*
X129204229Y-111982884D01*
X128442324Y-112601932D02*
X128537562Y-112649551D01*
X128537562Y-112649551D02*
X128728038Y-112649551D01*
X128728038Y-112649551D02*
X128823276Y-112601932D01*
X128823276Y-112601932D02*
X128870895Y-112554312D01*
X128870895Y-112554312D02*
X128918514Y-112459074D01*
X128918514Y-112459074D02*
X128918514Y-112173360D01*
X128918514Y-112173360D02*
X128870895Y-112078122D01*
X128870895Y-112078122D02*
X128823276Y-112030503D01*
X128823276Y-112030503D02*
X128728038Y-111982884D01*
X128728038Y-111982884D02*
X128537562Y-111982884D01*
X128537562Y-111982884D02*
X128442324Y-112030503D01*
X128013752Y-112649551D02*
X128013752Y-111649551D01*
X127585181Y-112649551D02*
X127585181Y-112125741D01*
X127585181Y-112125741D02*
X127632800Y-112030503D01*
X127632800Y-112030503D02*
X127728038Y-111982884D01*
X127728038Y-111982884D02*
X127870895Y-111982884D01*
X127870895Y-111982884D02*
X127966133Y-112030503D01*
X127966133Y-112030503D02*
X128013752Y-112078122D01*
X126394704Y-111744789D02*
X126347085Y-111697170D01*
X126347085Y-111697170D02*
X126251847Y-111649551D01*
X126251847Y-111649551D02*
X126013752Y-111649551D01*
X126013752Y-111649551D02*
X125918514Y-111697170D01*
X125918514Y-111697170D02*
X125870895Y-111744789D01*
X125870895Y-111744789D02*
X125823276Y-111840027D01*
X125823276Y-111840027D02*
X125823276Y-111935265D01*
X125823276Y-111935265D02*
X125870895Y-112078122D01*
X125870895Y-112078122D02*
X126442323Y-112649551D01*
X126442323Y-112649551D02*
X125823276Y-112649551D01*
X125204228Y-111649551D02*
X125108990Y-111649551D01*
X125108990Y-111649551D02*
X125013752Y-111697170D01*
X125013752Y-111697170D02*
X124966133Y-111744789D01*
X124966133Y-111744789D02*
X124918514Y-111840027D01*
X124918514Y-111840027D02*
X124870895Y-112030503D01*
X124870895Y-112030503D02*
X124870895Y-112268598D01*
X124870895Y-112268598D02*
X124918514Y-112459074D01*
X124918514Y-112459074D02*
X124966133Y-112554312D01*
X124966133Y-112554312D02*
X125013752Y-112601932D01*
X125013752Y-112601932D02*
X125108990Y-112649551D01*
X125108990Y-112649551D02*
X125204228Y-112649551D01*
X125204228Y-112649551D02*
X125299466Y-112601932D01*
X125299466Y-112601932D02*
X125347085Y-112554312D01*
X125347085Y-112554312D02*
X125394704Y-112459074D01*
X125394704Y-112459074D02*
X125442323Y-112268598D01*
X125442323Y-112268598D02*
X125442323Y-112030503D01*
X125442323Y-112030503D02*
X125394704Y-111840027D01*
X125394704Y-111840027D02*
X125347085Y-111744789D01*
X125347085Y-111744789D02*
X125299466Y-111697170D01*
X125299466Y-111697170D02*
X125204228Y-111649551D01*
X124489942Y-111744789D02*
X124442323Y-111697170D01*
X124442323Y-111697170D02*
X124347085Y-111649551D01*
X124347085Y-111649551D02*
X124108990Y-111649551D01*
X124108990Y-111649551D02*
X124013752Y-111697170D01*
X124013752Y-111697170D02*
X123966133Y-111744789D01*
X123966133Y-111744789D02*
X123918514Y-111840027D01*
X123918514Y-111840027D02*
X123918514Y-111935265D01*
X123918514Y-111935265D02*
X123966133Y-112078122D01*
X123966133Y-112078122D02*
X124537561Y-112649551D01*
X124537561Y-112649551D02*
X123918514Y-112649551D01*
X123013752Y-111649551D02*
X123489942Y-111649551D01*
X123489942Y-111649551D02*
X123537561Y-112125741D01*
X123537561Y-112125741D02*
X123489942Y-112078122D01*
X123489942Y-112078122D02*
X123394704Y-112030503D01*
X123394704Y-112030503D02*
X123156609Y-112030503D01*
X123156609Y-112030503D02*
X123061371Y-112078122D01*
X123061371Y-112078122D02*
X123013752Y-112125741D01*
X123013752Y-112125741D02*
X122966133Y-112220979D01*
X122966133Y-112220979D02*
X122966133Y-112459074D01*
X122966133Y-112459074D02*
X123013752Y-112554312D01*
X123013752Y-112554312D02*
X123061371Y-112601932D01*
X123061371Y-112601932D02*
X123156609Y-112649551D01*
X123156609Y-112649551D02*
X123394704Y-112649551D01*
X123394704Y-112649551D02*
X123489942Y-112601932D01*
X123489942Y-112601932D02*
X123537561Y-112554312D01*
X119033333Y-97979663D02*
X119033333Y-98693948D01*
X119033333Y-98693948D02*
X119080952Y-98836805D01*
X119080952Y-98836805D02*
X119176190Y-98932044D01*
X119176190Y-98932044D02*
X119319047Y-98979663D01*
X119319047Y-98979663D02*
X119414285Y-98979663D01*
X118557142Y-98979663D02*
X118557142Y-97979663D01*
X118557142Y-97979663D02*
X118176190Y-97979663D01*
X118176190Y-97979663D02*
X118080952Y-98027282D01*
X118080952Y-98027282D02*
X118033333Y-98074901D01*
X118033333Y-98074901D02*
X117985714Y-98170139D01*
X117985714Y-98170139D02*
X117985714Y-98312996D01*
X117985714Y-98312996D02*
X118033333Y-98408234D01*
X118033333Y-98408234D02*
X118080952Y-98455853D01*
X118080952Y-98455853D02*
X118176190Y-98503472D01*
X118176190Y-98503472D02*
X118557142Y-98503472D01*
X117128571Y-98312996D02*
X117128571Y-98979663D01*
X117366666Y-97932044D02*
X117604761Y-98646329D01*
X117604761Y-98646329D02*
X116985714Y-98646329D01*
X125279663Y-119041666D02*
X125993948Y-119041666D01*
X125993948Y-119041666D02*
X126136805Y-118994047D01*
X126136805Y-118994047D02*
X126232044Y-118898809D01*
X126232044Y-118898809D02*
X126279663Y-118755952D01*
X126279663Y-118755952D02*
X126279663Y-118660714D01*
X126279663Y-119517857D02*
X125279663Y-119517857D01*
X125279663Y-119517857D02*
X125279663Y-119898809D01*
X125279663Y-119898809D02*
X125327282Y-119994047D01*
X125327282Y-119994047D02*
X125374901Y-120041666D01*
X125374901Y-120041666D02*
X125470139Y-120089285D01*
X125470139Y-120089285D02*
X125612996Y-120089285D01*
X125612996Y-120089285D02*
X125708234Y-120041666D01*
X125708234Y-120041666D02*
X125755853Y-119994047D01*
X125755853Y-119994047D02*
X125803472Y-119898809D01*
X125803472Y-119898809D02*
X125803472Y-119517857D01*
X125279663Y-120422619D02*
X125279663Y-121089285D01*
X125279663Y-121089285D02*
X126279663Y-120660714D01*
X119033333Y-114629663D02*
X119033333Y-115343948D01*
X119033333Y-115343948D02*
X119080952Y-115486805D01*
X119080952Y-115486805D02*
X119176190Y-115582044D01*
X119176190Y-115582044D02*
X119319047Y-115629663D01*
X119319047Y-115629663D02*
X119414285Y-115629663D01*
X118557142Y-115629663D02*
X118557142Y-114629663D01*
X118557142Y-114629663D02*
X118176190Y-114629663D01*
X118176190Y-114629663D02*
X118080952Y-114677282D01*
X118080952Y-114677282D02*
X118033333Y-114724901D01*
X118033333Y-114724901D02*
X117985714Y-114820139D01*
X117985714Y-114820139D02*
X117985714Y-114962996D01*
X117985714Y-114962996D02*
X118033333Y-115058234D01*
X118033333Y-115058234D02*
X118080952Y-115105853D01*
X118080952Y-115105853D02*
X118176190Y-115153472D01*
X118176190Y-115153472D02*
X118557142Y-115153472D01*
X117128571Y-114629663D02*
X117319047Y-114629663D01*
X117319047Y-114629663D02*
X117414285Y-114677282D01*
X117414285Y-114677282D02*
X117461904Y-114724901D01*
X117461904Y-114724901D02*
X117557142Y-114867758D01*
X117557142Y-114867758D02*
X117604761Y-115058234D01*
X117604761Y-115058234D02*
X117604761Y-115439186D01*
X117604761Y-115439186D02*
X117557142Y-115534424D01*
X117557142Y-115534424D02*
X117509523Y-115582044D01*
X117509523Y-115582044D02*
X117414285Y-115629663D01*
X117414285Y-115629663D02*
X117223809Y-115629663D01*
X117223809Y-115629663D02*
X117128571Y-115582044D01*
X117128571Y-115582044D02*
X117080952Y-115534424D01*
X117080952Y-115534424D02*
X117033333Y-115439186D01*
X117033333Y-115439186D02*
X117033333Y-115201091D01*
X117033333Y-115201091D02*
X117080952Y-115105853D01*
X117080952Y-115105853D02*
X117128571Y-115058234D01*
X117128571Y-115058234D02*
X117223809Y-115010615D01*
X117223809Y-115010615D02*
X117414285Y-115010615D01*
X117414285Y-115010615D02*
X117509523Y-115058234D01*
X117509523Y-115058234D02*
X117557142Y-115105853D01*
X117557142Y-115105853D02*
X117604761Y-115201091D01*
X131754663Y-119041666D02*
X132468948Y-119041666D01*
X132468948Y-119041666D02*
X132611805Y-118994047D01*
X132611805Y-118994047D02*
X132707044Y-118898809D01*
X132707044Y-118898809D02*
X132754663Y-118755952D01*
X132754663Y-118755952D02*
X132754663Y-118660714D01*
X132754663Y-119517857D02*
X131754663Y-119517857D01*
X131754663Y-119517857D02*
X131754663Y-119898809D01*
X131754663Y-119898809D02*
X131802282Y-119994047D01*
X131802282Y-119994047D02*
X131849901Y-120041666D01*
X131849901Y-120041666D02*
X131945139Y-120089285D01*
X131945139Y-120089285D02*
X132087996Y-120089285D01*
X132087996Y-120089285D02*
X132183234Y-120041666D01*
X132183234Y-120041666D02*
X132230853Y-119994047D01*
X132230853Y-119994047D02*
X132278472Y-119898809D01*
X132278472Y-119898809D02*
X132278472Y-119517857D01*
X132183234Y-120660714D02*
X132135615Y-120565476D01*
X132135615Y-120565476D02*
X132087996Y-120517857D01*
X132087996Y-120517857D02*
X131992758Y-120470238D01*
X131992758Y-120470238D02*
X131945139Y-120470238D01*
X131945139Y-120470238D02*
X131849901Y-120517857D01*
X131849901Y-120517857D02*
X131802282Y-120565476D01*
X131802282Y-120565476D02*
X131754663Y-120660714D01*
X131754663Y-120660714D02*
X131754663Y-120851190D01*
X131754663Y-120851190D02*
X131802282Y-120946428D01*
X131802282Y-120946428D02*
X131849901Y-120994047D01*
X131849901Y-120994047D02*
X131945139Y-121041666D01*
X131945139Y-121041666D02*
X131992758Y-121041666D01*
X131992758Y-121041666D02*
X132087996Y-120994047D01*
X132087996Y-120994047D02*
X132135615Y-120946428D01*
X132135615Y-120946428D02*
X132183234Y-120851190D01*
X132183234Y-120851190D02*
X132183234Y-120660714D01*
X132183234Y-120660714D02*
X132230853Y-120565476D01*
X132230853Y-120565476D02*
X132278472Y-120517857D01*
X132278472Y-120517857D02*
X132373710Y-120470238D01*
X132373710Y-120470238D02*
X132564186Y-120470238D01*
X132564186Y-120470238D02*
X132659424Y-120517857D01*
X132659424Y-120517857D02*
X132707044Y-120565476D01*
X132707044Y-120565476D02*
X132754663Y-120660714D01*
X132754663Y-120660714D02*
X132754663Y-120851190D01*
X132754663Y-120851190D02*
X132707044Y-120946428D01*
X132707044Y-120946428D02*
X132659424Y-120994047D01*
X132659424Y-120994047D02*
X132564186Y-121041666D01*
X132564186Y-121041666D02*
X132373710Y-121041666D01*
X132373710Y-121041666D02*
X132278472Y-120994047D01*
X132278472Y-120994047D02*
X132230853Y-120946428D01*
X132230853Y-120946428D02*
X132183234Y-120851190D01*
X119058333Y-108629663D02*
X119058333Y-109343948D01*
X119058333Y-109343948D02*
X119105952Y-109486805D01*
X119105952Y-109486805D02*
X119201190Y-109582044D01*
X119201190Y-109582044D02*
X119344047Y-109629663D01*
X119344047Y-109629663D02*
X119439285Y-109629663D01*
X118582142Y-109629663D02*
X118582142Y-108629663D01*
X118582142Y-108629663D02*
X118201190Y-108629663D01*
X118201190Y-108629663D02*
X118105952Y-108677282D01*
X118105952Y-108677282D02*
X118058333Y-108724901D01*
X118058333Y-108724901D02*
X118010714Y-108820139D01*
X118010714Y-108820139D02*
X118010714Y-108962996D01*
X118010714Y-108962996D02*
X118058333Y-109058234D01*
X118058333Y-109058234D02*
X118105952Y-109105853D01*
X118105952Y-109105853D02*
X118201190Y-109153472D01*
X118201190Y-109153472D02*
X118582142Y-109153472D01*
X117105952Y-108629663D02*
X117582142Y-108629663D01*
X117582142Y-108629663D02*
X117629761Y-109105853D01*
X117629761Y-109105853D02*
X117582142Y-109058234D01*
X117582142Y-109058234D02*
X117486904Y-109010615D01*
X117486904Y-109010615D02*
X117248809Y-109010615D01*
X117248809Y-109010615D02*
X117153571Y-109058234D01*
X117153571Y-109058234D02*
X117105952Y-109105853D01*
X117105952Y-109105853D02*
X117058333Y-109201091D01*
X117058333Y-109201091D02*
X117058333Y-109439186D01*
X117058333Y-109439186D02*
X117105952Y-109534424D01*
X117105952Y-109534424D02*
X117153571Y-109582044D01*
X117153571Y-109582044D02*
X117248809Y-109629663D01*
X117248809Y-109629663D02*
X117486904Y-109629663D01*
X117486904Y-109629663D02*
X117582142Y-109582044D01*
X117582142Y-109582044D02*
X117629761Y-109534424D01*
X122229663Y-84566666D02*
X122943948Y-84566666D01*
X122943948Y-84566666D02*
X123086805Y-84519047D01*
X123086805Y-84519047D02*
X123182044Y-84423809D01*
X123182044Y-84423809D02*
X123229663Y-84280952D01*
X123229663Y-84280952D02*
X123229663Y-84185714D01*
X123229663Y-85042857D02*
X122229663Y-85042857D01*
X122229663Y-85042857D02*
X122229663Y-85423809D01*
X122229663Y-85423809D02*
X122277282Y-85519047D01*
X122277282Y-85519047D02*
X122324901Y-85566666D01*
X122324901Y-85566666D02*
X122420139Y-85614285D01*
X122420139Y-85614285D02*
X122562996Y-85614285D01*
X122562996Y-85614285D02*
X122658234Y-85566666D01*
X122658234Y-85566666D02*
X122705853Y-85519047D01*
X122705853Y-85519047D02*
X122753472Y-85423809D01*
X122753472Y-85423809D02*
X122753472Y-85042857D01*
X122324901Y-85995238D02*
X122277282Y-86042857D01*
X122277282Y-86042857D02*
X122229663Y-86138095D01*
X122229663Y-86138095D02*
X122229663Y-86376190D01*
X122229663Y-86376190D02*
X122277282Y-86471428D01*
X122277282Y-86471428D02*
X122324901Y-86519047D01*
X122324901Y-86519047D02*
X122420139Y-86566666D01*
X122420139Y-86566666D02*
X122515377Y-86566666D01*
X122515377Y-86566666D02*
X122658234Y-86519047D01*
X122658234Y-86519047D02*
X123229663Y-85947619D01*
X123229663Y-85947619D02*
X123229663Y-86566666D01*
X127904663Y-84591666D02*
X128618948Y-84591666D01*
X128618948Y-84591666D02*
X128761805Y-84544047D01*
X128761805Y-84544047D02*
X128857044Y-84448809D01*
X128857044Y-84448809D02*
X128904663Y-84305952D01*
X128904663Y-84305952D02*
X128904663Y-84210714D01*
X128904663Y-85067857D02*
X127904663Y-85067857D01*
X127904663Y-85067857D02*
X127904663Y-85448809D01*
X127904663Y-85448809D02*
X127952282Y-85544047D01*
X127952282Y-85544047D02*
X127999901Y-85591666D01*
X127999901Y-85591666D02*
X128095139Y-85639285D01*
X128095139Y-85639285D02*
X128237996Y-85639285D01*
X128237996Y-85639285D02*
X128333234Y-85591666D01*
X128333234Y-85591666D02*
X128380853Y-85544047D01*
X128380853Y-85544047D02*
X128428472Y-85448809D01*
X128428472Y-85448809D02*
X128428472Y-85067857D01*
X127904663Y-86258333D02*
X127904663Y-86353571D01*
X127904663Y-86353571D02*
X127952282Y-86448809D01*
X127952282Y-86448809D02*
X127999901Y-86496428D01*
X127999901Y-86496428D02*
X128095139Y-86544047D01*
X128095139Y-86544047D02*
X128285615Y-86591666D01*
X128285615Y-86591666D02*
X128523710Y-86591666D01*
X128523710Y-86591666D02*
X128714186Y-86544047D01*
X128714186Y-86544047D02*
X128809424Y-86496428D01*
X128809424Y-86496428D02*
X128857044Y-86448809D01*
X128857044Y-86448809D02*
X128904663Y-86353571D01*
X128904663Y-86353571D02*
X128904663Y-86258333D01*
X128904663Y-86258333D02*
X128857044Y-86163095D01*
X128857044Y-86163095D02*
X128809424Y-86115476D01*
X128809424Y-86115476D02*
X128714186Y-86067857D01*
X128714186Y-86067857D02*
X128523710Y-86020238D01*
X128523710Y-86020238D02*
X128285615Y-86020238D01*
X128285615Y-86020238D02*
X128095139Y-86067857D01*
X128095139Y-86067857D02*
X127999901Y-86115476D01*
X127999901Y-86115476D02*
X127952282Y-86163095D01*
X127952282Y-86163095D02*
X127904663Y-86258333D01*
X119008333Y-92529663D02*
X119008333Y-93243948D01*
X119008333Y-93243948D02*
X119055952Y-93386805D01*
X119055952Y-93386805D02*
X119151190Y-93482044D01*
X119151190Y-93482044D02*
X119294047Y-93529663D01*
X119294047Y-93529663D02*
X119389285Y-93529663D01*
X118532142Y-93529663D02*
X118532142Y-92529663D01*
X118532142Y-92529663D02*
X118151190Y-92529663D01*
X118151190Y-92529663D02*
X118055952Y-92577282D01*
X118055952Y-92577282D02*
X118008333Y-92624901D01*
X118008333Y-92624901D02*
X117960714Y-92720139D01*
X117960714Y-92720139D02*
X117960714Y-92862996D01*
X117960714Y-92862996D02*
X118008333Y-92958234D01*
X118008333Y-92958234D02*
X118055952Y-93005853D01*
X118055952Y-93005853D02*
X118151190Y-93053472D01*
X118151190Y-93053472D02*
X118532142Y-93053472D01*
X117627380Y-92529663D02*
X117008333Y-92529663D01*
X117008333Y-92529663D02*
X117341666Y-92910615D01*
X117341666Y-92910615D02*
X117198809Y-92910615D01*
X117198809Y-92910615D02*
X117103571Y-92958234D01*
X117103571Y-92958234D02*
X117055952Y-93005853D01*
X117055952Y-93005853D02*
X117008333Y-93101091D01*
X117008333Y-93101091D02*
X117008333Y-93339186D01*
X117008333Y-93339186D02*
X117055952Y-93434424D01*
X117055952Y-93434424D02*
X117103571Y-93482044D01*
X117103571Y-93482044D02*
X117198809Y-93529663D01*
X117198809Y-93529663D02*
X117484523Y-93529663D01*
X117484523Y-93529663D02*
X117579761Y-93482044D01*
X117579761Y-93482044D02*
X117627380Y-93434424D01*
D11*
%TO.C,SW1*%
X145995000Y-120925001D02*
G75*
G02*
X145741000Y-120925001I-127000J0D01*
G01*
X145741000Y-120925001D02*
G75*
G02*
X145995000Y-120925001I127000J0D01*
G01*
D12*
%TO.C,JP4*%
X116800000Y-95575000D02*
X119600000Y-95575000D01*
X116800000Y-97575000D02*
X116800000Y-95575000D01*
X119600000Y-95575000D02*
X119600000Y-97575000D01*
X119600000Y-97575000D02*
X116800000Y-97575000D01*
%TO.C,JP7*%
X122850000Y-118475000D02*
X124850000Y-118475000D01*
X122850000Y-121275000D02*
X122850000Y-118475000D01*
X124850000Y-118475000D02*
X124850000Y-121275000D01*
X124850000Y-121275000D02*
X122850000Y-121275000D01*
%TO.C,JP6*%
X116800000Y-112225000D02*
X119600000Y-112225000D01*
X116800000Y-114225000D02*
X116800000Y-112225000D01*
X119600000Y-112225000D02*
X119600000Y-114225000D01*
X119600000Y-114225000D02*
X116800000Y-114225000D01*
D13*
%TO.C,LOGO1*%
X135006106Y-91458127D02*
X135163014Y-91497135D01*
X135208333Y-91577000D01*
X135190657Y-91639644D01*
X135073388Y-91704000D01*
X135051074Y-91705076D01*
X134985819Y-91745507D01*
X134970050Y-91873201D01*
X134996666Y-92127334D01*
X135000064Y-92152366D01*
X135022907Y-92398218D01*
X135001747Y-92518698D01*
X134930852Y-92550667D01*
X134893818Y-92541210D01*
X134810134Y-92413175D01*
X134750658Y-92127334D01*
X134747166Y-92101465D01*
X134700004Y-91854676D01*
X134633805Y-91735175D01*
X134528084Y-91704000D01*
X134431950Y-91680509D01*
X134361666Y-91577000D01*
X134388756Y-91510668D01*
X134518781Y-91463596D01*
X134785000Y-91450000D01*
X135006106Y-91458127D01*
G36*
X135006106Y-91458127D02*
G01*
X135163014Y-91497135D01*
X135208333Y-91577000D01*
X135190657Y-91639644D01*
X135073388Y-91704000D01*
X135051074Y-91705076D01*
X134985819Y-91745507D01*
X134970050Y-91873201D01*
X134996666Y-92127334D01*
X135000064Y-92152366D01*
X135022907Y-92398218D01*
X135001747Y-92518698D01*
X134930852Y-92550667D01*
X134893818Y-92541210D01*
X134810134Y-92413175D01*
X134750658Y-92127334D01*
X134747166Y-92101465D01*
X134700004Y-91854676D01*
X134633805Y-91735175D01*
X134528084Y-91704000D01*
X134431950Y-91680509D01*
X134361666Y-91577000D01*
X134388756Y-91510668D01*
X134518781Y-91463596D01*
X134785000Y-91450000D01*
X135006106Y-91458127D01*
G37*
X133873073Y-91454491D02*
X134060162Y-91494772D01*
X134188958Y-91572933D01*
X134262567Y-91734311D01*
X134219951Y-91934940D01*
X134043672Y-92083910D01*
X133932770Y-92149420D01*
X133853118Y-92265169D01*
X133899282Y-92350631D01*
X134067354Y-92360225D01*
X134134008Y-92351665D01*
X134292074Y-92377410D01*
X134347317Y-92457447D01*
X134266680Y-92558836D01*
X134170081Y-92609270D01*
X133998917Y-92617544D01*
X133787839Y-92503533D01*
X133741231Y-92467372D01*
X133614657Y-92278490D01*
X133639391Y-92089319D01*
X133813526Y-91941596D01*
X133867099Y-91914247D01*
X133985729Y-91798427D01*
X133951081Y-91701982D01*
X133769000Y-91661667D01*
X133639029Y-91638619D01*
X133536588Y-91555834D01*
X133557865Y-91493696D01*
X133686153Y-91453621D01*
X133873073Y-91454491D01*
G36*
X133873073Y-91454491D02*
G01*
X134060162Y-91494772D01*
X134188958Y-91572933D01*
X134262567Y-91734311D01*
X134219951Y-91934940D01*
X134043672Y-92083910D01*
X133932770Y-92149420D01*
X133853118Y-92265169D01*
X133899282Y-92350631D01*
X134067354Y-92360225D01*
X134134008Y-92351665D01*
X134292074Y-92377410D01*
X134347317Y-92457447D01*
X134266680Y-92558836D01*
X134170081Y-92609270D01*
X133998917Y-92617544D01*
X133787839Y-92503533D01*
X133741231Y-92467372D01*
X133614657Y-92278490D01*
X133639391Y-92089319D01*
X133813526Y-91941596D01*
X133867099Y-91914247D01*
X133985729Y-91798427D01*
X133951081Y-91701982D01*
X133769000Y-91661667D01*
X133639029Y-91638619D01*
X133536588Y-91555834D01*
X133557865Y-91493696D01*
X133686153Y-91453621D01*
X133873073Y-91454491D01*
G37*
X136284665Y-91506923D02*
X136362081Y-91682782D01*
X136399653Y-91926811D01*
X136394599Y-92186812D01*
X136344141Y-92410585D01*
X136245500Y-92545932D01*
X136042669Y-92593677D01*
X135793991Y-92565001D01*
X135603918Y-92470361D01*
X135594093Y-92458676D01*
X135527892Y-92310123D01*
X135458594Y-92072471D01*
X135403444Y-91812794D01*
X135379686Y-91598167D01*
X135396383Y-91519315D01*
X135492759Y-91450000D01*
X135529235Y-91463690D01*
X135613605Y-91608155D01*
X135683259Y-91894500D01*
X135700202Y-91989613D01*
X135757779Y-92213762D01*
X135836007Y-92325283D01*
X135960260Y-92367509D01*
X136072317Y-92374415D01*
X136128735Y-92328448D01*
X136140826Y-92190789D01*
X136122627Y-91923009D01*
X136110290Y-91696093D01*
X136127474Y-91508109D01*
X136187142Y-91450000D01*
X136284665Y-91506923D01*
G36*
X136284665Y-91506923D02*
G01*
X136362081Y-91682782D01*
X136399653Y-91926811D01*
X136394599Y-92186812D01*
X136344141Y-92410585D01*
X136245500Y-92545932D01*
X136042669Y-92593677D01*
X135793991Y-92565001D01*
X135603918Y-92470361D01*
X135594093Y-92458676D01*
X135527892Y-92310123D01*
X135458594Y-92072471D01*
X135403444Y-91812794D01*
X135379686Y-91598167D01*
X135396383Y-91519315D01*
X135492759Y-91450000D01*
X135529235Y-91463690D01*
X135613605Y-91608155D01*
X135683259Y-91894500D01*
X135700202Y-91989613D01*
X135757779Y-92213762D01*
X135836007Y-92325283D01*
X135960260Y-92367509D01*
X136072317Y-92374415D01*
X136128735Y-92328448D01*
X136140826Y-92190789D01*
X136122627Y-91923009D01*
X136110290Y-91696093D01*
X136127474Y-91508109D01*
X136187142Y-91450000D01*
X136284665Y-91506923D01*
G37*
X128847445Y-88012760D02*
X129467342Y-88143189D01*
X130153536Y-88384603D01*
X130932666Y-88741458D01*
X131264038Y-88909130D01*
X131665110Y-89120824D01*
X131953254Y-89284085D01*
X132122317Y-89393842D01*
X132166145Y-89445023D01*
X132078585Y-89432557D01*
X131853483Y-89351373D01*
X131484686Y-89196400D01*
X131218103Y-89083276D01*
X130260537Y-88742308D01*
X129379873Y-88543057D01*
X128561691Y-88486807D01*
X127791574Y-88574838D01*
X127055105Y-88808433D01*
X126337867Y-89188873D01*
X125625441Y-89717442D01*
X125539831Y-89789479D01*
X125306084Y-89984039D01*
X125137702Y-90120987D01*
X125066521Y-90174302D01*
X125057740Y-90173370D01*
X125082457Y-90097853D01*
X125190188Y-89929225D01*
X125360568Y-89697321D01*
X125573230Y-89431975D01*
X125612655Y-89385341D01*
X126161490Y-88843275D01*
X126765758Y-88423482D01*
X127392332Y-88149318D01*
X127699978Y-88067039D01*
X128267203Y-87988863D01*
X128847445Y-88012760D01*
G36*
X128847445Y-88012760D02*
G01*
X129467342Y-88143189D01*
X130153536Y-88384603D01*
X130932666Y-88741458D01*
X131264038Y-88909130D01*
X131665110Y-89120824D01*
X131953254Y-89284085D01*
X132122317Y-89393842D01*
X132166145Y-89445023D01*
X132078585Y-89432557D01*
X131853483Y-89351373D01*
X131484686Y-89196400D01*
X131218103Y-89083276D01*
X130260537Y-88742308D01*
X129379873Y-88543057D01*
X128561691Y-88486807D01*
X127791574Y-88574838D01*
X127055105Y-88808433D01*
X126337867Y-89188873D01*
X125625441Y-89717442D01*
X125539831Y-89789479D01*
X125306084Y-89984039D01*
X125137702Y-90120987D01*
X125066521Y-90174302D01*
X125057740Y-90173370D01*
X125082457Y-90097853D01*
X125190188Y-89929225D01*
X125360568Y-89697321D01*
X125573230Y-89431975D01*
X125612655Y-89385341D01*
X126161490Y-88843275D01*
X126765758Y-88423482D01*
X127392332Y-88149318D01*
X127699978Y-88067039D01*
X128267203Y-87988863D01*
X128847445Y-88012760D01*
G37*
X132727833Y-91809834D02*
X132743103Y-91840599D01*
X132846520Y-92023914D01*
X132917903Y-92064036D01*
X132977079Y-91952998D01*
X133043875Y-91682834D01*
X133113358Y-91522943D01*
X133220280Y-91450000D01*
X133248594Y-91451054D01*
X133318933Y-91481449D01*
X133336640Y-91577502D01*
X133301341Y-91770851D01*
X133212659Y-92093136D01*
X133153572Y-92269296D01*
X133053170Y-92473915D01*
X132963624Y-92550667D01*
X132961620Y-92550593D01*
X132864732Y-92476760D01*
X132724682Y-92290806D01*
X132571070Y-92031851D01*
X132556098Y-92003984D01*
X132418855Y-91770276D01*
X132313831Y-91628527D01*
X132262716Y-91608517D01*
X132222642Y-91658815D01*
X132076537Y-91704000D01*
X131983456Y-91727742D01*
X131951225Y-91852167D01*
X131962327Y-91909193D01*
X132019963Y-92234973D01*
X132038041Y-92430418D01*
X132016787Y-92525620D01*
X131956425Y-92550667D01*
X131955568Y-92550663D01*
X131843927Y-92471292D01*
X131767487Y-92257587D01*
X131738156Y-91942722D01*
X131696636Y-91760816D01*
X131553132Y-91688722D01*
X131437111Y-91651847D01*
X131334409Y-91555834D01*
X131332025Y-91534973D01*
X131396456Y-91485224D01*
X131587000Y-91458171D01*
X131924931Y-91450000D01*
X132550306Y-91450000D01*
X132727833Y-91809834D01*
G36*
X132727833Y-91809834D02*
G01*
X132743103Y-91840599D01*
X132846520Y-92023914D01*
X132917903Y-92064036D01*
X132977079Y-91952998D01*
X133043875Y-91682834D01*
X133113358Y-91522943D01*
X133220280Y-91450000D01*
X133248594Y-91451054D01*
X133318933Y-91481449D01*
X133336640Y-91577502D01*
X133301341Y-91770851D01*
X133212659Y-92093136D01*
X133153572Y-92269296D01*
X133053170Y-92473915D01*
X132963624Y-92550667D01*
X132961620Y-92550593D01*
X132864732Y-92476760D01*
X132724682Y-92290806D01*
X132571070Y-92031851D01*
X132556098Y-92003984D01*
X132418855Y-91770276D01*
X132313831Y-91628527D01*
X132262716Y-91608517D01*
X132222642Y-91658815D01*
X132076537Y-91704000D01*
X131983456Y-91727742D01*
X131951225Y-91852167D01*
X131962327Y-91909193D01*
X132019963Y-92234973D01*
X132038041Y-92430418D01*
X132016787Y-92525620D01*
X131956425Y-92550667D01*
X131955568Y-92550663D01*
X131843927Y-92471292D01*
X131767487Y-92257587D01*
X131738156Y-91942722D01*
X131696636Y-91760816D01*
X131553132Y-91688722D01*
X131437111Y-91651847D01*
X131334409Y-91555834D01*
X131332025Y-91534973D01*
X131396456Y-91485224D01*
X131587000Y-91458171D01*
X131924931Y-91450000D01*
X132550306Y-91450000D01*
X132727833Y-91809834D01*
G37*
X129970636Y-92344964D02*
X130094073Y-92396240D01*
X130330966Y-92507028D01*
X130654660Y-92664671D01*
X131038500Y-92856512D01*
X131056137Y-92865408D01*
X131536207Y-93096511D01*
X132047265Y-93324941D01*
X132529308Y-93524784D01*
X132922333Y-93670125D01*
X133243442Y-93772955D01*
X133571941Y-93859661D01*
X133882723Y-93910514D01*
X134238087Y-93935070D01*
X134700333Y-93942887D01*
X135087704Y-93941869D01*
X135417995Y-93929376D01*
X135654985Y-93899418D01*
X135839575Y-93846448D01*
X136012666Y-93764921D01*
X136148612Y-93684930D01*
X136597360Y-93310842D01*
X136930551Y-92847000D01*
X136942121Y-92825274D01*
X137032950Y-92682418D01*
X137073801Y-92672074D01*
X137069075Y-92768973D01*
X137023173Y-92947845D01*
X136940497Y-93183420D01*
X136825449Y-93450429D01*
X136539541Y-93922205D01*
X136138131Y-94314277D01*
X135654657Y-94560469D01*
X135409193Y-94618339D01*
X134874988Y-94639424D01*
X134252050Y-94555144D01*
X133564034Y-94371038D01*
X132834592Y-94092640D01*
X132087379Y-93725489D01*
X131850235Y-93590486D01*
X131522401Y-93393795D01*
X131165474Y-93171948D01*
X130808442Y-92943760D01*
X130480292Y-92728048D01*
X130210010Y-92543627D01*
X130026583Y-92409313D01*
X129959000Y-92343923D01*
X129970636Y-92344964D01*
G36*
X129970636Y-92344964D02*
G01*
X130094073Y-92396240D01*
X130330966Y-92507028D01*
X130654660Y-92664671D01*
X131038500Y-92856512D01*
X131056137Y-92865408D01*
X131536207Y-93096511D01*
X132047265Y-93324941D01*
X132529308Y-93524784D01*
X132922333Y-93670125D01*
X133243442Y-93772955D01*
X133571941Y-93859661D01*
X133882723Y-93910514D01*
X134238087Y-93935070D01*
X134700333Y-93942887D01*
X135087704Y-93941869D01*
X135417995Y-93929376D01*
X135654985Y-93899418D01*
X135839575Y-93846448D01*
X136012666Y-93764921D01*
X136148612Y-93684930D01*
X136597360Y-93310842D01*
X136930551Y-92847000D01*
X136942121Y-92825274D01*
X137032950Y-92682418D01*
X137073801Y-92672074D01*
X137069075Y-92768973D01*
X137023173Y-92947845D01*
X136940497Y-93183420D01*
X136825449Y-93450429D01*
X136539541Y-93922205D01*
X136138131Y-94314277D01*
X135654657Y-94560469D01*
X135409193Y-94618339D01*
X134874988Y-94639424D01*
X134252050Y-94555144D01*
X133564034Y-94371038D01*
X132834592Y-94092640D01*
X132087379Y-93725489D01*
X131850235Y-93590486D01*
X131522401Y-93393795D01*
X131165474Y-93171948D01*
X130808442Y-92943760D01*
X130480292Y-92728048D01*
X130210010Y-92543627D01*
X130026583Y-92409313D01*
X129959000Y-92343923D01*
X129970636Y-92344964D01*
G37*
X134734382Y-90192390D02*
X135881000Y-90233127D01*
X136869353Y-90305336D01*
X137698266Y-90408934D01*
X138366565Y-90543839D01*
X138873074Y-90709968D01*
X139216618Y-90907240D01*
X139396021Y-91135570D01*
X139410108Y-91394878D01*
X139391441Y-91448643D01*
X139236715Y-91679932D01*
X138964208Y-91955182D01*
X138600374Y-92249938D01*
X138171666Y-92539745D01*
X137844295Y-92736997D01*
X137639724Y-92845003D01*
X137549275Y-92863634D01*
X137559737Y-92795554D01*
X137657901Y-92643430D01*
X137662500Y-92636887D01*
X137783075Y-92392824D01*
X137833000Y-92150189D01*
X137822533Y-92041793D01*
X137712114Y-91805318D01*
X137475513Y-91594661D01*
X137105594Y-91407283D01*
X136595220Y-91240644D01*
X135937254Y-91092204D01*
X135124560Y-90959425D01*
X134150000Y-90839767D01*
X133835511Y-90815123D01*
X133356310Y-90792159D01*
X132746599Y-90772551D01*
X132026340Y-90756404D01*
X131215493Y-90743828D01*
X130334022Y-90734927D01*
X129401887Y-90729811D01*
X128439050Y-90728585D01*
X127465473Y-90731357D01*
X126501118Y-90738234D01*
X125565947Y-90749324D01*
X124679920Y-90764732D01*
X123863000Y-90784567D01*
X121958000Y-90838801D01*
X123228000Y-90725458D01*
X123266607Y-90722030D01*
X123767222Y-90679655D01*
X124381667Y-90630553D01*
X125059444Y-90578602D01*
X125750054Y-90527680D01*
X126403000Y-90481663D01*
X126668471Y-90463673D01*
X128588779Y-90345813D01*
X130356699Y-90259837D01*
X131971057Y-90205662D01*
X133430677Y-90183208D01*
X134734382Y-90192390D01*
G36*
X134734382Y-90192390D02*
G01*
X135881000Y-90233127D01*
X136869353Y-90305336D01*
X137698266Y-90408934D01*
X138366565Y-90543839D01*
X138873074Y-90709968D01*
X139216618Y-90907240D01*
X139396021Y-91135570D01*
X139410108Y-91394878D01*
X139391441Y-91448643D01*
X139236715Y-91679932D01*
X138964208Y-91955182D01*
X138600374Y-92249938D01*
X138171666Y-92539745D01*
X137844295Y-92736997D01*
X137639724Y-92845003D01*
X137549275Y-92863634D01*
X137559737Y-92795554D01*
X137657901Y-92643430D01*
X137662500Y-92636887D01*
X137783075Y-92392824D01*
X137833000Y-92150189D01*
X137822533Y-92041793D01*
X137712114Y-91805318D01*
X137475513Y-91594661D01*
X137105594Y-91407283D01*
X136595220Y-91240644D01*
X135937254Y-91092204D01*
X135124560Y-90959425D01*
X134150000Y-90839767D01*
X133835511Y-90815123D01*
X133356310Y-90792159D01*
X132746599Y-90772551D01*
X132026340Y-90756404D01*
X131215493Y-90743828D01*
X130334022Y-90734927D01*
X129401887Y-90729811D01*
X128439050Y-90728585D01*
X127465473Y-90731357D01*
X126501118Y-90738234D01*
X125565947Y-90749324D01*
X124679920Y-90764732D01*
X123863000Y-90784567D01*
X121958000Y-90838801D01*
X123228000Y-90725458D01*
X123266607Y-90722030D01*
X123767222Y-90679655D01*
X124381667Y-90630553D01*
X125059444Y-90578602D01*
X125750054Y-90527680D01*
X126403000Y-90481663D01*
X126668471Y-90463673D01*
X128588779Y-90345813D01*
X130356699Y-90259837D01*
X131971057Y-90205662D01*
X133430677Y-90183208D01*
X134734382Y-90192390D01*
G37*
X128362703Y-91075467D02*
X129108343Y-91191034D01*
X129373572Y-91253478D01*
X129750106Y-91356876D01*
X130124248Y-91473111D01*
X130463765Y-91590844D01*
X130736425Y-91698737D01*
X130909995Y-91785450D01*
X130952242Y-91839647D01*
X130920026Y-91838382D01*
X130757869Y-91799913D01*
X130492390Y-91723953D01*
X130160111Y-91620601D01*
X129319134Y-91407453D01*
X128386306Y-91280587D01*
X127444602Y-91252743D01*
X126541797Y-91325229D01*
X125725666Y-91499350D01*
X125459169Y-91585726D01*
X124939185Y-91809810D01*
X124569973Y-92057160D01*
X124354314Y-92319717D01*
X124294991Y-92589425D01*
X124394786Y-92858225D01*
X124656482Y-93118059D01*
X125082861Y-93360870D01*
X125339368Y-93462909D01*
X126012458Y-93632163D01*
X126766634Y-93711459D01*
X127559552Y-93702579D01*
X128348870Y-93607303D01*
X129092245Y-93427412D01*
X129747333Y-93164686D01*
X130001333Y-93035501D01*
X129832000Y-93229358D01*
X129670862Y-93382570D01*
X129355836Y-93618294D01*
X128972258Y-93861585D01*
X128570756Y-94080908D01*
X128201958Y-94244726D01*
X127929886Y-94330150D01*
X127523741Y-94425619D01*
X127131278Y-94489577D01*
X126376469Y-94527305D01*
X125636566Y-94466518D01*
X124960672Y-94311745D01*
X124378294Y-94069800D01*
X123918941Y-93747501D01*
X123840643Y-93671203D01*
X123563103Y-93297560D01*
X123449056Y-92921786D01*
X123494048Y-92552511D01*
X123693625Y-92198364D01*
X124043334Y-91867975D01*
X124538721Y-91569973D01*
X125175333Y-91312989D01*
X125310679Y-91271139D01*
X125981905Y-91126699D01*
X126748384Y-91044884D01*
X127559017Y-91027279D01*
X128362703Y-91075467D01*
G36*
X128362703Y-91075467D02*
G01*
X129108343Y-91191034D01*
X129373572Y-91253478D01*
X129750106Y-91356876D01*
X130124248Y-91473111D01*
X130463765Y-91590844D01*
X130736425Y-91698737D01*
X130909995Y-91785450D01*
X130952242Y-91839647D01*
X130920026Y-91838382D01*
X130757869Y-91799913D01*
X130492390Y-91723953D01*
X130160111Y-91620601D01*
X129319134Y-91407453D01*
X128386306Y-91280587D01*
X127444602Y-91252743D01*
X126541797Y-91325229D01*
X125725666Y-91499350D01*
X125459169Y-91585726D01*
X124939185Y-91809810D01*
X124569973Y-92057160D01*
X124354314Y-92319717D01*
X124294991Y-92589425D01*
X124394786Y-92858225D01*
X124656482Y-93118059D01*
X125082861Y-93360870D01*
X125339368Y-93462909D01*
X126012458Y-93632163D01*
X126766634Y-93711459D01*
X127559552Y-93702579D01*
X128348870Y-93607303D01*
X129092245Y-93427412D01*
X129747333Y-93164686D01*
X130001333Y-93035501D01*
X129832000Y-93229358D01*
X129670862Y-93382570D01*
X129355836Y-93618294D01*
X128972258Y-93861585D01*
X128570756Y-94080908D01*
X128201958Y-94244726D01*
X127929886Y-94330150D01*
X127523741Y-94425619D01*
X127131278Y-94489577D01*
X126376469Y-94527305D01*
X125636566Y-94466518D01*
X124960672Y-94311745D01*
X124378294Y-94069800D01*
X123918941Y-93747501D01*
X123840643Y-93671203D01*
X123563103Y-93297560D01*
X123449056Y-92921786D01*
X123494048Y-92552511D01*
X123693625Y-92198364D01*
X124043334Y-91867975D01*
X124538721Y-91569973D01*
X125175333Y-91312989D01*
X125310679Y-91271139D01*
X125981905Y-91126699D01*
X126748384Y-91044884D01*
X127559017Y-91027279D01*
X128362703Y-91075467D01*
G37*
D12*
%TO.C,JP8*%
X129350000Y-118475000D02*
X131350000Y-118475000D01*
X129350000Y-121275000D02*
X129350000Y-118475000D01*
X131350000Y-118475000D02*
X131350000Y-121275000D01*
X131350000Y-121275000D02*
X129350000Y-121275000D01*
%TO.C,JP5*%
X116825000Y-106225000D02*
X119625000Y-106225000D01*
X116825000Y-108225000D02*
X116825000Y-106225000D01*
X119625000Y-106225000D02*
X119625000Y-108225000D01*
X119625000Y-108225000D02*
X116825000Y-108225000D01*
%TO.C,JP2*%
X123650000Y-84000000D02*
X125650000Y-84000000D01*
X123650000Y-86800000D02*
X123650000Y-84000000D01*
X125650000Y-84000000D02*
X125650000Y-86800000D01*
X125650000Y-86800000D02*
X123650000Y-86800000D01*
%TO.C,JP0*%
X129375000Y-84050000D02*
X131375000Y-84050000D01*
X129375000Y-86850000D02*
X129375000Y-84050000D01*
X131375000Y-84050000D02*
X131375000Y-86850000D01*
X131375000Y-86850000D02*
X129375000Y-86850000D01*
%TO.C,JP3*%
X116825000Y-90125000D02*
X119625000Y-90125000D01*
X116825000Y-92125000D02*
X116825000Y-90125000D01*
X119625000Y-90125000D02*
X119625000Y-92125000D01*
X119625000Y-92125000D02*
X116825000Y-92125000D01*
%TD*%
M02*
